<svg width="24" height="24" viewBox="0 0 24 24" fill="none" xmlns="http://www.w3.org/2000/svg">
<path d="M15.717 5.07444L18.9256 8.28294M7.50002 7.5H4.125C3.50368 7.5 3 8.00368 3 8.625V19.875C3 20.4963 3.50368 21 4.125 21H16.5C17.1214 21 17.625 20.4963 17.625 19.875V14.8125M20.3352 3.66481C20.5459 3.87544 20.7131 4.12553 20.8272 4.40079C20.9413 4.67605 21 4.9711 21 5.26906C21 5.56703 20.9413 5.86207 20.8272 6.13734C20.7131 6.4126 20.5459 6.66269 20.3352 6.87331L12.6357 14.5729L8.62502 15.375L9.42715 11.3644L17.1267 3.66481C17.3373 3.45405 17.5874 3.28686 17.8627 3.17279C18.1379 3.05871 18.433 3 18.7309 3C19.0289 3 19.3239 3.05871 19.5992 3.17279C19.8745 3.28686 20.1246 3.45405 20.3352 3.66481Z" stroke="#383838" stroke-width="2" stroke-linecap="round" stroke-linejoin="round"/>
</svg>
