<svg width="150" height="150" viewBox="0 0 72 72" fill="none" xmlns="http://www.w3.org/2000/svg">
<path d="M36 66C52.5685 66 66 52.5685 66 36C66 19.4315 52.5685 6 36 6C19.4315 6 6 19.4315 6 36C6 52.5685 19.4315 66 36 66Z" fill="#16171D" stroke="#AFB2BF" stroke-width="1.5"/>
<path d="M45 27C45 24.6131 44.0518 22.3239 42.364 20.636C40.6761 18.9482 38.3869 18 36 18C33.6131 18 31.3239 18.9482 29.636 20.636C27.9482 22.3239 27 24.6131 27 27C27 29.3869 27.9482 31.6761 29.636 33.364C31.3239 35.0518 33.6131 36 36 36C38.3869 36 40.6761 35.0518 42.364 33.364C44.0518 31.6761 45 29.3869 45 27Z" fill="#16171D" stroke="#AFB2BF" stroke-width="1.5"/>
<path d="M54 60C53 51 51 45 36 45C21 45 19 51 18 60" fill="#16171D"/>
<path d="M54 60C53 51 51 45 36 45C21 45 19 51 18 60" stroke="#AFB2BF" stroke-width="1.5" stroke-linecap="round"/>
</svg>
