<svg width="343" height="377" viewBox="0 0 343 377" fill="none" xmlns="http://www.w3.org/2000/svg">
<path d="M195.899 376.593C194.455 376.593 192.947 376.24 191.777 375.568L2.26923 266.31C1.0823 265.622 0.392578 264.693 0.392578 263.748C0.392578 262.947 0.873741 262.226 1.77196 261.713L114.851 196.505C116.727 195.416 120.016 195.544 122.181 196.793L311.688 306.05C312.875 306.739 313.565 307.668 313.565 308.613C313.565 309.414 313.084 310.135 312.186 310.648L199.107 375.856C198.257 376.352 197.102 376.593 195.899 376.593ZM118.059 196.409C116.984 196.409 115.942 196.633 115.172 197.066L2.09277 262.274C1.41911 262.658 1.03415 263.187 1.03415 263.748C1.03415 264.452 1.59554 265.189 2.58999 265.75L192.097 375.007C194.086 376.144 197.086 376.272 198.786 375.295L311.865 310.087C312.538 309.702 312.923 309.174 312.923 308.613C312.923 307.908 312.362 307.172 311.368 306.611L121.86 197.354C120.769 196.729 119.374 196.409 118.059 196.409Z" fill="#E47AD5"/>
<path d="M312.86 290.277L302.431 288.771L121.87 184.53C119.804 183.328 116.664 183.2 114.87 184.241L7.32809 246.335L0.711914 245.389V254.168H0.727901C0.727901 254.953 1.30461 255.786 2.42601 256.427L191.701 365.699C193.768 366.9 196.908 367.029 198.702 365.987L311.642 300.77C312.475 300.29 312.844 299.649 312.828 298.976H312.844V290.261L312.86 290.277Z" fill="url(#paint0_linear_559_12205)"/>
<path d="M2.42648 247.699L191.702 356.971C193.768 358.172 196.908 358.3 198.702 357.259L311.643 292.042C313.437 291.001 313.213 289.19 311.146 288.005L121.871 178.733C119.804 177.532 116.664 177.404 114.87 178.445L1.92987 243.662C0.135638 244.703 0.359912 246.513 2.42648 247.699Z" fill="#AFB2BF"/>
<path opacity="0.3" d="M18.8143 249.83L187.984 347.503C189.843 348.577 192.63 348.689 194.248 347.76L295.206 289.479C296.808 288.55 296.615 286.932 294.757 285.875L125.587 188.201C123.729 187.128 120.941 187.016 119.323 187.945L18.3657 246.225C16.7637 247.155 16.9559 248.773 18.8143 249.83Z" fill="#2E2D3D"/>
<path d="M311.659 291.096L198.719 356.313C196.925 357.354 193.785 357.226 191.718 356.024L2.44297 246.753C1.52984 246.224 1.00116 245.583 0.824944 244.942C0.536586 245.872 1.08128 246.913 2.44297 247.698L191.718 356.97C193.785 358.171 196.925 358.299 198.719 357.258L311.659 292.041C312.668 291.464 313.021 290.631 312.781 289.814C312.636 290.295 312.268 290.743 311.659 291.096Z" fill="white"/>
<path d="M121.535 144.66L145.469 2.70739L143.547 1.89038L146.43 0.24032C146.991 -0.112117 147.792 -0.0960966 148.657 0.41654L339.87 110.81C341.44 111.723 342.626 114.046 342.354 115.664L318.244 258.738C318.115 259.49 317.747 259.971 317.234 260.195L314.399 261.829L313.918 259.186L314.078 259.234L124.018 149.498C122.448 148.585 121.263 146.262 121.535 144.644V144.66Z" fill="url(#paint1_linear_559_12205)"/>
<path d="M338.796 114.702L341.936 113.308C342.288 114.109 342.464 114.958 342.336 115.679L318.226 258.753C318.098 259.506 317.73 259.986 317.217 260.211L314.382 261.845L313.901 259.201L314.061 259.249L304.449 253.691L338.796 114.686V114.702Z" fill="url(#paint2_linear_559_12205)"/>
<path d="M121.022 151.24L312.236 261.633C313.71 262.482 314.975 261.985 315.231 260.463L339.341 117.39C339.614 115.772 338.428 113.433 336.858 112.536L145.645 2.14244C144.171 1.29338 142.905 1.79 142.649 3.3119L118.539 146.386C118.267 148.004 119.452 150.343 121.022 151.24Z" fill="#2E2D3D"/>
<g opacity="0.51">
<path d="M145.004 4.80762L337.131 115.665L312.861 259.108L120.862 148.314L145.004 4.80762Z" fill="#6C38CC"/>
</g>
<path d="M0.825195 218.977L11.2542 224.424L115.896 164.013C117.642 163.003 120.702 163.131 122.721 164.301L303.201 268.494C304.931 267.533 312.797 263.736 312.797 263.736L308.984 269.952C308.824 270.401 308.487 270.801 307.911 271.138L197.71 334.769C195.964 335.778 192.904 335.65 190.885 334.48L6.20791 227.852C5.37487 227.371 4.86223 226.795 4.65398 226.202L0.857266 218.993L0.825195 218.977Z" fill="url(#paint3_linear_559_12205)"/>
<path d="M2.42648 220.706L191.702 329.978C193.768 331.179 196.908 331.307 198.702 330.266L311.643 265.049C313.437 264.008 313.213 262.198 311.146 261.012L121.871 151.74C119.804 150.539 116.664 150.411 114.87 151.452L1.92987 216.669C0.135638 217.71 0.359912 219.52 2.42648 220.706Z" fill="#AFB2BF"/>
<path d="M2.42698 219.857L191.702 329.129C193.769 330.33 196.909 330.458 198.703 329.417L311.643 264.2C312.268 263.832 312.636 263.367 312.781 262.87C312.989 263.671 312.62 264.472 311.643 265.049L198.703 330.266C196.909 331.307 193.769 331.179 191.702 329.978L2.42698 220.706C1.0813 219.937 0.536644 218.896 0.792963 217.983C0.953162 218.639 1.49782 219.312 2.42698 219.857Z" fill="white"/>
<g opacity="0.15">
<mask id="mask0_559_12205" style="mask-type:luminance" maskUnits="userSpaceOnUse" x="120" y="4" width="218" height="256">
<path d="M337.131 115.655L145.004 4.79712L120.862 148.303L312.861 259.097L337.131 115.655Z" fill="white"/>
</mask>
<g mask="url(#mask0_559_12205)">
<path d="M120.785 150.303L131.214 155.75L235.856 95.339C237.602 94.3297 240.662 94.4579 242.681 95.6273L423.161 199.821C424.891 198.86 432.757 195.063 432.757 195.063L428.944 201.279C428.784 201.727 428.447 202.128 427.871 202.464L317.67 266.095C315.924 267.104 312.864 266.976 310.845 265.807L126.168 159.178C125.335 158.698 124.822 158.121 124.614 157.528L120.817 150.319L120.785 150.303Z" fill="url(#paint4_linear_559_12205)"/>
<path d="M122.403 152.032L311.678 261.304C313.745 262.505 316.885 262.634 318.679 261.592L431.619 196.375C433.414 195.334 433.189 193.524 431.123 192.338L241.847 83.0664C239.781 81.8649 236.641 81.7368 234.847 82.7781L121.906 147.995C120.112 149.036 120.336 150.847 122.403 152.032Z" fill="url(#paint5_linear_559_12205)"/>
<path d="M431.123 192.339L241.848 83.0672C240.518 82.2982 238.74 81.9778 237.17 82.122C238.339 82.2181 239.509 82.5225 240.454 83.0672L429.729 192.339C431.796 193.54 432.02 195.351 430.226 196.376L317.285 261.593C316.645 261.961 315.828 262.17 314.963 262.25C316.34 262.362 317.702 262.154 318.679 261.593L431.62 196.376C433.414 195.335 433.19 193.524 431.123 192.339Z" fill="white"/>
<g opacity="0.5">
<path d="M221.533 133.214L215.461 129.706C214.981 129.417 214.148 129.449 213.619 129.754L206.875 133.695C206.346 133.999 206.314 134.48 206.795 134.768L212.866 138.276C213.347 138.565 214.18 138.533 214.709 138.228L221.453 134.287C221.982 133.983 222.014 133.502 221.533 133.214Z" fill="#2E2D3D"/>
<path d="M230.904 138.631L224.833 135.122C224.352 134.834 223.519 134.866 222.99 135.17L216.246 139.111C215.717 139.416 215.685 139.896 216.166 140.185L222.237 143.693C222.718 143.981 223.551 143.949 224.08 143.645L230.824 139.704C231.353 139.4 231.385 138.919 230.904 138.631Z" fill="#2E2D3D"/>
<path d="M240.275 144.043L234.204 140.534C233.723 140.246 232.89 140.278 232.361 140.582L225.617 144.523C225.088 144.828 225.056 145.308 225.537 145.596L231.608 149.105C232.089 149.393 232.922 149.361 233.451 149.057L240.195 145.116C240.724 144.812 240.756 144.331 240.275 144.043Z" fill="#2E2D3D"/>
<path d="M233.148 151.234L227.076 147.726C226.596 147.437 225.763 147.469 225.234 147.774L219.579 151.074C219.05 151.378 219.018 151.859 219.499 152.147L225.57 155.655C226.051 155.944 226.884 155.912 227.413 155.607L233.068 152.307C233.596 152.003 233.628 151.522 233.148 151.234Z" fill="#2E2D3D"/>
<path d="M242.518 156.651L236.446 153.142C235.966 152.854 235.133 152.886 234.604 153.19L228.949 156.491C228.42 156.795 228.388 157.276 228.869 157.564L234.94 161.072C235.421 161.361 236.254 161.329 236.783 161.024L242.438 157.724C242.966 157.42 242.998 156.939 242.518 156.651Z" fill="#2E2D3D"/>
<path d="M251.89 162.051L245.818 158.543C245.338 158.254 244.505 158.286 243.976 158.591L238.321 161.891C237.792 162.195 237.76 162.676 238.241 162.964L244.313 166.472C244.793 166.761 245.626 166.729 246.155 166.424L251.81 163.124C252.338 162.82 252.371 162.339 251.89 162.051Z" fill="#2E2D3D"/>
<path d="M261.262 167.465L255.19 163.957C254.71 163.668 253.877 163.701 253.348 164.005L247.693 167.305C247.164 167.609 247.132 168.09 247.613 168.378L253.685 171.887C254.165 172.175 254.998 172.143 255.527 171.839L261.182 168.539C261.711 168.234 261.743 167.754 261.262 167.465Z" fill="#2E2D3D"/>
<path d="M270.616 172.877L264.545 169.369C264.064 169.08 263.231 169.112 262.703 169.417L257.048 172.717C256.519 173.021 256.487 173.502 256.968 173.79L263.039 177.299C263.52 177.587 264.353 177.555 264.881 177.25L270.536 173.95C271.065 173.646 271.097 173.165 270.616 172.877Z" fill="#2E2D3D"/>
<path d="M279.99 178.282L273.918 174.773C273.437 174.485 272.604 174.517 272.076 174.822L266.421 178.122C265.892 178.426 265.86 178.907 266.341 179.195L272.412 182.703C272.893 182.992 273.726 182.96 274.254 182.655L279.909 179.355C280.438 179.051 280.47 178.57 279.99 178.282Z" fill="#2E2D3D"/>
<path d="M289.361 183.694L283.289 180.185C282.808 179.897 281.975 179.929 281.447 180.233L275.792 183.533C275.263 183.838 275.231 184.318 275.712 184.607L281.783 188.115C282.264 188.404 283.097 188.372 283.625 188.067L289.281 184.767C289.809 184.463 289.841 183.982 289.361 183.694Z" fill="#2E2D3D"/>
<path d="M298.733 189.108L292.661 185.6C292.181 185.311 291.348 185.343 290.819 185.648L285.164 188.948C284.635 189.252 284.603 189.733 285.084 190.021L291.155 193.529C291.636 193.818 292.469 193.786 292.998 193.481L298.653 190.181C299.181 189.877 299.213 189.396 298.733 189.108Z" fill="#2E2D3D"/>
<path d="M308.105 194.506L302.033 190.998C301.553 190.709 300.72 190.741 300.191 191.046L294.536 194.346C294.007 194.65 293.975 195.131 294.456 195.419L300.527 198.927C301.008 199.216 301.841 199.184 302.37 198.879L308.025 195.579C308.553 195.275 308.585 194.794 308.105 194.506Z" fill="#2E2D3D"/>
<path d="M317.476 199.92L311.404 196.412C310.924 196.123 310.091 196.155 309.562 196.46L303.907 199.76C303.378 200.064 303.346 200.545 303.827 200.833L309.898 204.342C310.379 204.63 311.212 204.598 311.741 204.293L317.396 200.993C317.924 200.689 317.956 200.208 317.476 199.92Z" fill="#2E2D3D"/>
<path d="M229.239 158.957L223.167 155.448C222.686 155.16 221.853 155.192 221.325 155.496L215.67 158.796C215.141 159.101 215.109 159.581 215.59 159.87L221.661 163.378C222.142 163.666 222.975 163.634 223.503 163.33L229.158 160.03C229.687 159.726 229.719 159.245 229.239 158.957Z" fill="#2E2D3D"/>
<path d="M219.739 153.464L213.667 149.956C213.186 149.668 212.353 149.7 211.825 150.004L206.17 153.304C205.641 153.609 205.609 154.089 206.09 154.378L212.161 157.886C212.642 158.174 213.475 158.142 214.003 157.838L219.658 154.538C220.187 154.233 220.219 153.753 219.739 153.464Z" fill="#2E2D3D"/>
<path d="M210.206 147.964L197.134 140.418C196.653 140.13 195.82 140.162 195.292 140.467L189.637 143.767C189.108 144.071 189.076 144.552 189.556 144.84L202.629 152.385C203.109 152.674 203.942 152.642 204.471 152.337L210.126 149.037C210.655 148.733 210.687 148.252 210.206 147.964Z" fill="#2E2D3D"/>
<path d="M199.153 151.573L188.548 145.453C188.067 145.165 187.234 145.197 186.706 145.501L181.051 148.801C180.522 149.105 180.49 149.586 180.97 149.874L191.576 155.994C192.056 156.282 192.889 156.25 193.418 155.946L199.073 152.646C199.602 152.341 199.634 151.861 199.153 151.573Z" fill="#2E2D3D"/>
<path d="M238.61 164.369L232.538 160.86C232.058 160.572 231.224 160.604 230.696 160.908L225.041 164.208C224.512 164.513 224.48 164.993 224.961 165.282L231.032 168.79C231.513 169.078 232.346 169.046 232.875 168.742L238.53 165.442C239.058 165.137 239.09 164.657 238.61 164.369Z" fill="#2E2D3D"/>
<path d="M247.982 169.771L241.91 166.263C241.43 165.974 240.597 166.006 240.068 166.311L234.413 169.611C233.884 169.915 233.852 170.396 234.333 170.684L240.404 174.193C240.885 174.481 241.718 174.449 242.247 174.145L247.902 170.844C248.43 170.54 248.462 170.059 247.982 169.771Z" fill="#2E2D3D"/>
<path d="M257.354 175.183L251.282 171.675C250.802 171.386 249.969 171.418 249.44 171.723L243.785 175.023C243.256 175.327 243.224 175.808 243.705 176.096L249.776 179.604C250.257 179.893 251.09 179.861 251.619 179.556L257.274 176.256C257.802 175.952 257.834 175.471 257.354 175.183Z" fill="#2E2D3D"/>
<path d="M266.724 180.602L260.652 177.094C260.172 176.805 259.339 176.837 258.81 177.142L253.155 180.442C252.626 180.746 252.594 181.227 253.075 181.515L259.146 185.023C259.627 185.312 260.46 185.28 260.989 184.975L266.644 181.675C267.172 181.371 267.204 180.89 266.724 180.602Z" fill="#2E2D3D"/>
<path d="M276.097 186L270.025 182.491C269.545 182.203 268.712 182.235 268.183 182.539L262.528 185.839C261.999 186.144 261.967 186.624 262.448 186.913L268.52 190.421C269 190.709 269.833 190.677 270.362 190.373L276.017 187.073C276.545 186.769 276.578 186.288 276.097 186Z" fill="#2E2D3D"/>
<path d="M285.452 191.414L279.381 187.906C278.9 187.617 278.067 187.649 277.539 187.954L271.884 191.254C271.355 191.558 271.323 192.039 271.803 192.327L277.875 195.835C278.356 196.124 279.189 196.092 279.717 195.787L285.372 192.487C285.901 192.183 285.933 191.702 285.452 191.414Z" fill="#2E2D3D"/>
<path d="M294.824 196.831L288.752 193.322C288.271 193.034 287.438 193.066 286.91 193.37L281.255 196.67C280.726 196.975 280.694 197.455 281.175 197.744L287.246 201.252C287.727 201.541 288.56 201.508 289.088 201.204L294.743 197.904C295.272 197.6 295.304 197.119 294.824 196.831Z" fill="#2E2D3D"/>
<path d="M304.195 202.226L298.123 198.718C297.642 198.429 296.809 198.461 296.281 198.766L290.626 202.066C290.097 202.37 290.065 202.851 290.546 203.139L296.617 206.647C297.098 206.936 297.931 206.904 298.459 206.599L304.114 203.299C304.643 202.995 304.675 202.514 304.195 202.226Z" fill="#2E2D3D"/>
<path d="M313.567 207.64L307.495 204.132C307.015 203.844 306.181 203.876 305.653 204.18L299.998 207.48C299.469 207.784 299.437 208.265 299.918 208.553L305.989 212.062C306.47 212.35 307.303 212.318 307.832 212.014L313.487 208.714C314.015 208.409 314.047 207.929 313.567 207.64Z" fill="#2E2D3D"/>
<path d="M330.227 217.256L316.994 209.615C316.514 209.326 315.681 209.358 315.152 209.663L309.497 212.963C308.968 213.267 308.936 213.748 309.417 214.036L322.649 221.678C323.13 221.966 323.963 221.934 324.491 221.63L330.146 218.33C330.675 218.025 330.707 217.545 330.227 217.256Z" fill="#2E2D3D"/>
<path d="M313.055 227.301L301.889 220.845C301.408 220.556 300.575 220.588 300.046 220.893L294.391 224.193C293.863 224.497 293.831 224.978 294.311 225.266L305.477 231.722C305.958 232.01 306.791 231.978 307.319 231.674L312.974 228.374C313.503 228.069 313.535 227.589 313.055 227.301Z" fill="#2E2D3D"/>
<path d="M237.311 173.602L231.239 170.093C230.759 169.805 229.926 169.837 229.397 170.141L223.742 173.441C223.213 173.746 223.181 174.226 223.662 174.515L229.733 178.023C230.214 178.312 231.047 178.279 231.576 177.975L237.231 174.675C237.759 174.371 237.791 173.89 237.311 173.602Z" fill="#2E2D3D"/>
<path d="M227.716 168.041L221.645 164.533C221.164 164.244 220.331 164.276 219.802 164.581L214.147 167.881C213.619 168.185 213.587 168.666 214.067 168.954L220.139 172.463C220.619 172.751 221.452 172.719 221.981 172.415L227.636 169.114C228.165 168.81 228.197 168.329 227.716 168.041Z" fill="#2E2D3D"/>
<path d="M218.105 162.497L212.033 158.989C211.553 158.7 210.72 158.732 210.191 159.037L204.536 162.337C204.007 162.641 203.975 163.122 204.456 163.41L210.527 166.918C211.008 167.207 211.841 167.175 212.37 166.87L218.025 163.57C218.553 163.266 218.585 162.785 218.105 162.497Z" fill="#2E2D3D"/>
<path d="M208.508 156.958L202.437 153.449C201.956 153.161 201.123 153.193 200.594 153.497L194.939 156.797C194.411 157.102 194.379 157.582 194.859 157.871L200.931 161.379C201.411 161.667 202.244 161.635 202.773 161.331L208.428 158.031C208.957 157.727 208.989 157.246 208.508 156.958Z" fill="#2E2D3D"/>
<path d="M246.684 178.999L240.612 175.491C240.132 175.203 239.299 175.235 238.77 175.539L233.115 178.839C232.586 179.144 232.554 179.624 233.035 179.912L239.106 183.421C239.587 183.709 240.42 183.677 240.949 183.373L246.604 180.073C247.132 179.768 247.164 179.288 246.684 178.999Z" fill="#2E2D3D"/>
<path d="M256.056 184.414L249.984 180.905C249.504 180.617 248.671 180.649 248.142 180.953L242.487 184.253C241.958 184.558 241.926 185.038 242.407 185.327L248.478 188.835C248.959 189.124 249.792 189.091 250.321 188.787L255.976 185.487C256.504 185.183 256.537 184.702 256.056 184.414Z" fill="#2E2D3D"/>
<path d="M265.427 189.828L259.355 186.32C258.875 186.031 258.042 186.063 257.513 186.368L251.858 189.668C251.329 189.972 251.297 190.453 251.778 190.741L257.85 194.249C258.33 194.538 259.163 194.506 259.692 194.201L265.347 190.901C265.876 190.597 265.908 190.116 265.427 189.828Z" fill="#2E2D3D"/>
<path d="M274.783 195.228L268.712 191.72C268.231 191.431 267.398 191.463 266.87 191.768L261.215 195.068C260.686 195.372 260.654 195.853 261.135 196.141L267.206 199.65C267.687 199.938 268.52 199.906 269.048 199.602L274.703 196.301C275.232 195.997 275.264 195.516 274.783 195.228Z" fill="#2E2D3D"/>
<path d="M284.155 200.64L278.083 197.132C277.602 196.843 276.769 196.875 276.241 197.18L270.586 200.48C270.057 200.784 270.025 201.265 270.506 201.553L276.577 205.061C277.058 205.35 277.891 205.318 278.419 205.013L284.074 201.713C284.603 201.409 284.635 200.928 284.155 200.64Z" fill="#2E2D3D"/>
<path d="M293.526 206.059L287.454 202.551C286.974 202.262 286.14 202.294 285.612 202.599L279.957 205.899C279.428 206.203 279.396 206.684 279.877 206.972L285.948 210.48C286.429 210.769 287.262 210.737 287.791 210.432L293.446 207.132C293.974 206.828 294.006 206.347 293.526 206.059Z" fill="#2E2D3D"/>
<path d="M302.899 211.457L296.827 207.948C296.347 207.66 295.514 207.692 294.985 207.996L289.33 211.296C288.801 211.601 288.769 212.081 289.25 212.37L295.321 215.878C295.802 216.167 296.635 216.134 297.164 215.83L302.819 212.53C303.347 212.226 303.379 211.745 302.899 211.457Z" fill="#2E2D3D"/>
<path d="M312.27 216.871L306.198 213.363C305.718 213.074 304.885 213.106 304.356 213.411L298.701 216.711C298.172 217.015 298.14 217.496 298.621 217.784L304.692 221.292C305.173 221.581 306.006 221.549 306.535 221.244L312.19 217.944C312.718 217.64 312.75 217.159 312.27 216.871Z" fill="#2E2D3D"/>
<path d="M321.641 222.283L315.569 218.775C315.089 218.486 314.256 218.518 313.727 218.823L308.072 222.123C307.543 222.427 307.511 222.908 307.992 223.196L314.063 226.705C314.544 226.993 315.377 226.961 315.906 226.656L321.561 223.356C322.089 223.052 322.121 222.571 321.641 222.283Z" fill="#2E2D3D"/>
<path d="M214.676 170.491L208.605 166.982C208.124 166.694 207.291 166.726 206.762 167.031L201.107 170.331C200.579 170.635 200.546 171.116 201.027 171.404L207.099 174.912C207.579 175.201 208.412 175.169 208.941 174.864L214.596 171.564C215.125 171.26 215.157 170.779 214.676 170.491Z" fill="#2E2D3D"/>
<path d="M205.352 165.11L199.28 161.601C198.8 161.313 197.967 161.345 197.438 161.649L191.783 164.95C191.254 165.254 191.222 165.734 191.703 166.023L197.774 169.531C198.255 169.82 199.088 169.788 199.617 169.483L205.272 166.183C205.8 165.879 205.832 165.398 205.352 165.11Z" fill="#2E2D3D"/>
<path d="M196.029 159.728L189.957 156.22C189.476 155.932 188.643 155.964 188.115 156.268L182.46 159.568C181.931 159.873 181.899 160.353 182.38 160.641L188.451 164.15C188.932 164.438 189.765 164.406 190.293 164.102L195.948 160.802C196.477 160.497 196.509 160.017 196.029 159.728Z" fill="#2E2D3D"/>
<path d="M186.705 154.342L180.634 150.834C180.153 150.546 179.32 150.578 178.791 150.882L173.136 154.182C172.608 154.487 172.576 154.967 173.056 155.256L179.128 158.764C179.609 159.052 180.442 159.02 180.97 158.716L186.625 155.416C187.154 155.111 187.186 154.631 186.705 154.342Z" fill="#2E2D3D"/>
<path d="M177.67 159.618L171.598 156.109C171.118 155.821 170.285 155.853 169.756 156.157L167.882 157.247C167.353 157.551 167.321 158.032 167.802 158.32L173.873 161.828C174.354 162.117 175.187 162.085 175.715 161.78L177.59 160.691C178.118 160.386 178.15 159.906 177.67 159.618Z" fill="#2E2D3D"/>
<path d="M189.846 166.649L183.774 163.14C183.293 162.852 182.46 162.884 181.932 163.188L180.057 164.278C179.529 164.582 179.497 165.063 179.977 165.351L186.049 168.859C186.529 169.148 187.362 169.116 187.891 168.811L189.765 167.722C190.294 167.417 190.326 166.937 189.846 166.649Z" fill="#2E2D3D"/>
<path d="M199.12 172.015L193.048 168.507C192.568 168.219 191.735 168.251 191.206 168.555L189.332 169.645C188.803 169.949 188.771 170.43 189.252 170.718L195.323 174.226C195.804 174.515 196.637 174.483 197.166 174.178L199.04 173.089C199.569 172.784 199.601 172.304 199.12 172.015Z" fill="#2E2D3D"/>
<path d="M208.412 177.369L202.34 173.86C201.86 173.572 201.027 173.604 200.498 173.908L198.624 174.998C198.095 175.302 198.063 175.783 198.544 176.071L204.615 179.579C205.096 179.868 205.929 179.836 206.458 179.531L208.332 178.442C208.86 178.137 208.893 177.657 208.412 177.369Z" fill="#2E2D3D"/>
<path d="M217.688 182.731L211.617 179.222C211.136 178.934 210.303 178.966 209.774 179.271L207.9 180.36C207.371 180.664 207.339 181.145 207.82 181.433L213.892 184.942C214.372 185.23 215.205 185.198 215.734 184.893L217.608 183.804C218.137 183.5 218.169 183.019 217.688 182.731Z" fill="#2E2D3D"/>
<path d="M269.528 212.658L263.457 209.15C262.976 208.861 262.143 208.893 261.614 209.198L259.74 210.287C259.211 210.591 259.179 211.072 259.66 211.36L265.731 214.869C266.212 215.157 267.045 215.125 267.574 214.821L269.448 213.731C269.977 213.427 270.009 212.946 269.528 212.658Z" fill="#2E2D3D"/>
<path d="M278.804 218.009L272.732 214.5C272.251 214.212 271.418 214.244 270.89 214.548L269.015 215.638C268.487 215.942 268.455 216.423 268.935 216.711L275.007 220.219C275.487 220.508 276.32 220.476 276.849 220.171L278.723 219.082C279.252 218.778 279.284 218.297 278.804 218.009Z" fill="#2E2D3D"/>
<path d="M288.095 223.371L282.023 219.863C281.542 219.574 280.709 219.606 280.181 219.911L278.306 221C277.778 221.304 277.746 221.785 278.226 222.073L284.298 225.582C284.778 225.87 285.611 225.838 286.14 225.534L288.014 224.444C288.543 224.14 288.575 223.659 288.095 223.371Z" fill="#2E2D3D"/>
<path d="M297.371 228.719L291.299 225.211C290.819 224.923 289.986 224.955 289.457 225.259L287.583 226.348C287.054 226.653 287.022 227.133 287.503 227.422L293.574 230.93C294.055 231.218 294.888 231.186 295.417 230.882L297.291 229.793C297.819 229.488 297.852 229.008 297.371 228.719Z" fill="#2E2D3D"/>
<path d="M224.032 175.908L217.96 172.399C217.479 172.111 216.646 172.143 216.118 172.447L210.463 175.747C209.934 176.052 209.902 176.532 210.383 176.821L216.454 180.329C216.935 180.617 217.768 180.585 218.296 180.281L223.951 176.981C224.48 176.677 224.512 176.196 224.032 175.908Z" fill="#2E2D3D"/>
<path d="M233.404 181.324L227.332 177.816C226.851 177.527 226.018 177.559 225.49 177.864L219.835 181.164C219.306 181.468 219.274 181.949 219.755 182.237L225.826 185.746C226.307 186.034 227.14 186.002 227.668 185.698L233.323 182.397C233.852 182.093 233.884 181.612 233.404 181.324Z" fill="#2E2D3D"/>
<path d="M242.775 186.722L236.703 183.214C236.223 182.925 235.389 182.957 234.861 183.262L229.206 186.562C228.677 186.866 228.645 187.347 229.126 187.635L235.197 191.144C235.678 191.432 236.511 191.4 237.04 191.095L242.695 187.795C243.223 187.491 243.255 187.01 242.775 186.722Z" fill="#2E2D3D"/>
<path d="M252.147 192.131L246.075 188.623C245.595 188.335 244.762 188.367 244.233 188.671L238.578 191.971C238.049 192.276 238.017 192.756 238.498 193.045L244.569 196.553C245.05 196.841 245.883 196.809 246.412 196.505L252.067 193.205C252.595 192.9 252.627 192.42 252.147 192.131Z" fill="#2E2D3D"/>
<path d="M261.518 197.55L255.446 194.042C254.966 193.754 254.133 193.786 253.604 194.09L247.949 197.39C247.42 197.695 247.388 198.175 247.869 198.464L253.94 201.972C254.421 202.26 255.254 202.228 255.783 201.924L261.438 198.624C261.966 198.319 261.998 197.839 261.518 197.55Z" fill="#2E2D3D"/>
<path d="M270.89 202.943L264.818 199.435C264.338 199.147 263.505 199.179 262.976 199.483L257.321 202.783C256.792 203.088 256.76 203.568 257.241 203.857L263.313 207.365C263.793 207.653 264.626 207.621 265.155 207.317L270.81 204.017C271.338 203.712 271.371 203.232 270.89 202.943Z" fill="#2E2D3D"/>
<path d="M280.261 208.362L274.189 204.854C273.709 204.566 272.876 204.598 272.347 204.902L266.692 208.202C266.164 208.507 266.131 208.987 266.612 209.276L272.684 212.784C273.164 213.072 273.997 213.04 274.526 212.736L280.181 209.436C280.71 209.131 280.742 208.651 280.261 208.362Z" fill="#2E2D3D"/>
<path d="M289.617 213.779L283.546 210.271C283.065 209.982 282.232 210.014 281.704 210.319L276.049 213.619C275.52 213.923 275.488 214.404 275.968 214.692L282.04 218.201C282.521 218.489 283.354 218.457 283.882 218.153L289.537 214.852C290.066 214.548 290.098 214.068 289.617 213.779Z" fill="#2E2D3D"/>
<path d="M298.989 219.177L292.917 215.668C292.436 215.38 291.603 215.412 291.075 215.717L285.42 219.017C284.891 219.321 284.859 219.802 285.34 220.09L291.411 223.598C291.892 223.887 292.725 223.855 293.253 223.55L298.908 220.25C299.437 219.946 299.469 219.465 298.989 219.177Z" fill="#2E2D3D"/>
<path d="M223.599 145.725L205.737 135.408C205.257 135.119 204.424 135.151 203.895 135.456L198.24 138.756C197.711 139.06 197.679 139.541 198.16 139.829L216.022 150.146C216.503 150.434 217.336 150.402 217.864 150.098L223.519 146.798C224.048 146.494 224.08 146.013 223.599 145.725Z" fill="#2E2D3D"/>
<path d="M338.702 212.176L320.84 201.859C320.359 201.571 319.526 201.603 318.998 201.907L313.343 205.207C312.814 205.512 312.782 205.992 313.262 206.281L331.125 216.597C331.605 216.886 332.438 216.854 332.967 216.549L338.622 213.249C339.151 212.945 339.183 212.464 338.702 212.176Z" fill="#2E2D3D"/>
<path d="M321.32 190.824L315.249 187.315C314.768 187.027 313.935 187.059 313.406 187.364L306.662 191.304C306.133 191.609 306.101 192.089 306.582 192.378L312.653 195.886C313.134 196.174 313.967 196.142 314.496 195.838L321.24 191.897C321.769 191.593 321.801 191.112 321.32 190.824Z" fill="#2E2D3D"/>
<path d="M253.284 151.541L243.576 145.934C243.095 145.646 242.262 145.678 241.733 145.982L234.989 149.923C234.46 150.228 234.428 150.708 234.909 150.997L244.617 156.604C245.098 156.892 245.931 156.86 246.459 156.556L253.204 152.615C253.732 152.31 253.764 151.83 253.284 151.541Z" fill="#2E2D3D"/>
<path d="M312.301 185.615L302.593 180.008C302.113 179.72 301.28 179.752 300.751 180.056L294.007 183.997C293.478 184.302 293.446 184.782 293.927 185.071L303.635 190.678C304.115 190.966 304.948 190.934 305.477 190.63L312.221 186.689C312.75 186.384 312.782 185.904 312.301 185.615Z" fill="#2E2D3D"/>
<path d="M266.804 159.342L257.096 153.735C256.616 153.446 255.783 153.478 255.254 153.783L248.51 157.724C247.981 158.028 247.949 158.509 248.429 158.797L258.137 164.404C258.618 164.692 259.451 164.66 259.98 164.356L266.724 160.415C267.253 160.111 267.285 159.63 266.804 159.342Z" fill="#2E2D3D"/>
<path d="M248.511 158.845L290.691 183.196C291.22 183.5 292.037 183.516 292.533 183.228L299.406 179.207C299.903 178.918 299.871 178.438 299.358 178.133L257.178 153.783L248.511 158.845Z" fill="#2E2D3D"/>
<path d="M329.138 200.366L335.898 204.275C336.299 204.499 336.972 204.483 337.404 204.227L340.16 202.609C340.592 202.352 340.624 201.968 340.224 201.727L333.463 197.819C333.063 197.594 332.39 197.61 331.957 197.867L329.202 199.485C328.769 199.741 328.737 200.125 329.138 200.366Z" fill="#2E2D3D"/>
<path d="M319.766 194.951L326.526 198.86C326.927 199.085 327.599 199.069 328.032 198.812L330.787 197.194C331.22 196.938 331.252 196.553 330.852 196.313L324.091 192.404C323.691 192.18 323.018 192.196 322.585 192.452L319.83 194.07C319.397 194.327 319.365 194.711 319.766 194.951Z" fill="#2E2D3D"/>
<path d="M324.269 203.219L331.029 207.128C331.43 207.352 332.102 207.336 332.535 207.08L335.29 205.462C335.723 205.206 335.755 204.821 335.354 204.581L328.594 200.672C328.194 200.448 327.521 200.464 327.088 200.72L324.333 202.338C323.9 202.595 323.868 202.979 324.269 203.219Z" fill="#2E2D3D"/>
</g>
<path d="M221.629 85.366V144.527C221.645 145.809 222.43 147.027 224.016 147.956L273.165 176.343C276.705 178.378 282.889 178.137 286.974 175.766C289.265 174.437 290.402 172.739 290.354 171.137V111.959L221.629 85.366Z" fill="url(#paint6_linear_559_12205)"/>
<path opacity="0.3" d="M276.866 177.507C280.166 178.003 284.091 177.411 286.991 175.744C289.282 174.415 290.419 172.717 290.371 171.115V111.937L277.123 106.811H276.882V177.491L276.866 177.507Z" fill="#2E2D3D"/>
<path d="M273.165 117.162L224.016 88.7749C220.476 86.7243 220.925 83.1679 225.01 80.813C229.095 78.458 235.278 78.2017 238.819 80.2363L287.968 108.624C291.508 110.674 291.06 114.23 286.975 116.585C282.89 118.94 276.706 119.197 273.165 117.162Z" fill="url(#paint7_linear_559_12205)"/>
<path opacity="0.5" d="M273.165 199.618L224.016 171.23C220.476 169.18 220.925 165.623 225.01 163.269C229.095 160.914 235.278 160.657 238.819 162.692L287.968 191.079C291.508 193.13 291.06 196.686 286.975 199.041C282.89 201.396 276.706 201.652 273.165 199.618Z" fill="#2E2D3D"/>
<path d="M278.084 113.367C275.745 113.367 273.839 111.46 273.839 109.121V82.8328C273.839 73.8617 267.287 62.5035 259.517 58.018L248.239 51.4979C245.259 49.7837 242.568 49.3512 240.854 50.3445C239.14 51.3377 238.162 53.8688 238.162 57.3131V83.6018C238.162 85.9407 236.256 87.8471 233.917 87.8471C231.578 87.8471 229.672 85.9407 229.672 83.6018V57.3131C229.672 50.6648 232.139 45.5705 236.609 42.9913C241.078 40.4121 246.717 40.8126 252.484 44.1447L263.762 50.6648C274.175 56.6723 282.329 70.8019 282.329 82.8328V109.121C282.329 111.46 280.423 113.367 278.084 113.367Z" fill="url(#paint8_linear_559_12205)"/>
</g>
</g>
<g opacity="0.8">
<path d="M89.4963 208.591L83.4888 205.115C83.0082 204.843 83.0723 204.346 83.617 204.026L90.7138 199.924C91.2745 199.604 92.1075 199.572 92.5881 199.844L98.5956 203.321C99.0762 203.593 99.0121 204.09 98.4674 204.41L91.3706 208.511C90.8099 208.832 89.9769 208.864 89.4963 208.591Z" fill="#2E2D3D"/>
<path d="M98.7717 213.961L92.7642 210.484C92.2836 210.212 92.3477 209.715 92.8923 209.395L99.9892 205.294C100.55 204.973 101.383 204.941 101.864 205.214L107.871 208.69C108.352 208.962 108.288 209.459 107.743 209.779L100.646 213.881C100.085 214.201 99.2523 214.233 98.7717 213.961Z" fill="#2E2D3D"/>
<path d="M108.047 219.314L102.04 215.837C101.559 215.565 101.623 215.068 102.168 214.748L109.265 210.647C109.825 210.326 110.658 210.294 111.139 210.567L117.146 214.043C117.627 214.315 117.563 214.812 117.018 215.132L109.921 219.234C109.361 219.554 108.528 219.586 108.047 219.314Z" fill="#2E2D3D"/>
<path d="M120.895 214.89L114.887 211.414C114.407 211.141 114.471 210.645 115.015 210.324L120.975 206.88C121.535 206.56 122.369 206.528 122.849 206.8L128.857 210.276C129.337 210.549 129.273 211.045 128.728 211.366L122.769 214.81C122.208 215.13 121.375 215.162 120.895 214.89Z" fill="#2E2D3D"/>
<path d="M130.17 220.241L124.163 216.764C123.682 216.492 123.746 215.995 124.291 215.675L130.25 212.231C130.811 211.91 131.644 211.878 132.125 212.151L138.132 215.627C138.613 215.899 138.548 216.396 138.004 216.716L132.044 220.16C131.484 220.481 130.651 220.513 130.17 220.241Z" fill="#2E2D3D"/>
<path d="M139.445 225.603L133.438 222.127C132.957 221.854 133.022 221.358 133.566 221.037L139.526 217.593C140.086 217.273 140.919 217.24 141.4 217.513L147.407 220.989C147.888 221.262 147.824 221.758 147.279 222.079L141.32 225.523C140.759 225.843 139.926 225.875 139.429 225.603H139.445Z" fill="#2E2D3D"/>
<path d="M148.722 230.958L142.714 227.482C142.234 227.209 142.298 226.713 142.843 226.392L148.802 222.948C149.363 222.628 150.196 222.596 150.676 222.868L156.684 226.344C157.164 226.617 157.1 227.113 156.556 227.434L150.596 230.878C150.036 231.198 149.202 231.23 148.722 230.958Z" fill="#2E2D3D"/>
<path d="M157.996 236.309L151.989 232.832C151.508 232.56 151.572 232.063 152.117 231.743L158.076 228.299C158.637 227.978 159.47 227.946 159.951 228.219L165.958 231.695C166.439 231.967 166.375 232.464 165.83 232.784L159.871 236.229C159.31 236.549 158.477 236.581 157.996 236.309Z" fill="#2E2D3D"/>
<path d="M167.288 241.673L161.281 238.197C160.8 237.925 160.864 237.428 161.409 237.108L167.368 233.663C167.929 233.343 168.762 233.311 169.243 233.583L175.25 237.06C175.731 237.332 175.667 237.829 175.122 238.149L169.163 241.593C168.602 241.914 167.769 241.946 167.288 241.673Z" fill="#2E2D3D"/>
<path d="M176.565 247.026L170.557 243.55C170.077 243.278 170.141 242.781 170.685 242.461L176.645 239.016C177.205 238.696 178.038 238.664 178.519 238.936L184.527 242.412C185.007 242.685 184.943 243.181 184.398 243.502L178.439 246.946C177.878 247.267 177.045 247.299 176.565 247.026Z" fill="#2E2D3D"/>
<path d="M185.839 252.393L179.832 248.917C179.351 248.645 179.415 248.148 179.96 247.828L185.919 244.383C186.48 244.063 187.313 244.031 187.793 244.303L193.801 247.78C194.282 248.052 194.217 248.549 193.673 248.869L187.713 252.313C187.153 252.634 186.32 252.666 185.839 252.393Z" fill="#2E2D3D"/>
<path d="M195.114 257.742L189.107 254.265C188.626 253.993 188.69 253.496 189.235 253.176L195.195 249.732C195.755 249.411 196.588 249.379 197.069 249.652L203.076 253.128C203.557 253.4 203.493 253.897 202.948 254.217L196.989 257.661C196.428 257.982 195.595 258.014 195.114 257.742Z" fill="#2E2D3D"/>
<path d="M204.406 263.097L198.399 259.62C197.918 259.348 197.982 258.851 198.527 258.531L204.487 255.087C205.047 254.766 205.88 254.734 206.361 255.007L212.368 258.483C212.849 258.755 212.785 259.252 212.24 259.572L206.281 263.017C205.72 263.337 204.887 263.369 204.406 263.097Z" fill="#2E2D3D"/>
<path d="M134.56 212.341L128.552 208.865C128.072 208.592 128.136 208.096 128.68 207.775L134.64 204.331C135.201 204.011 136.034 203.979 136.514 204.251L142.522 207.727C143.002 208 142.938 208.496 142.393 208.817L136.434 212.261C135.873 212.581 135.04 212.613 134.56 212.341Z" fill="#2E2D3D"/>
<path d="M125.14 206.915L119.132 203.439C118.652 203.166 118.716 202.67 119.261 202.349L125.22 198.905C125.781 198.585 126.614 198.552 127.094 198.825L133.102 202.301C133.582 202.573 133.518 203.07 132.974 203.391L127.014 206.835C126.453 207.155 125.62 207.187 125.14 206.915Z" fill="#2E2D3D"/>
<path d="M115.703 201.461L102.759 193.995C102.279 193.723 102.343 193.226 102.887 192.906L108.847 189.462C109.408 189.141 110.241 189.109 110.721 189.382L123.665 196.847C124.146 197.119 124.082 197.616 123.537 197.936L117.578 201.381C117.017 201.701 116.184 201.733 115.703 201.461Z" fill="#2E2D3D"/>
<path d="M122.305 194.851L111.795 188.796C111.315 188.523 111.379 188.027 111.924 187.706L117.883 184.262C118.444 183.942 119.277 183.91 119.757 184.182L130.266 190.238C130.747 190.51 130.683 191.007 130.138 191.327L124.179 194.771C123.618 195.092 122.785 195.124 122.305 194.851Z" fill="#2E2D3D"/>
<path d="M143.835 217.713L137.828 214.236C137.347 213.964 137.411 213.467 137.956 213.147L143.915 209.703C144.476 209.382 145.309 209.35 145.79 209.623L151.797 213.099C152.278 213.371 152.214 213.868 151.669 214.188L145.709 217.633C145.149 217.953 144.316 217.985 143.835 217.713Z" fill="#2E2D3D"/>
<path d="M153.111 223.061L147.104 219.585C146.623 219.312 146.688 218.816 147.232 218.495L153.192 215.051C153.752 214.731 154.585 214.698 155.066 214.971L161.073 218.447C161.554 218.719 161.49 219.216 160.945 219.537L154.986 222.981C154.425 223.301 153.592 223.333 153.111 223.061Z" fill="#2E2D3D"/>
<path d="M162.403 228.426L156.395 224.949C155.914 224.677 155.979 224.18 156.523 223.86L162.483 220.416C163.043 220.095 163.876 220.063 164.357 220.336L170.364 223.812C170.845 224.084 170.781 224.581 170.236 224.901L164.277 228.346C163.716 228.666 162.883 228.698 162.403 228.426Z" fill="#2E2D3D"/>
<path d="M171.678 233.778L165.67 230.302C165.19 230.03 165.254 229.533 165.799 229.213L171.758 225.768C172.319 225.448 173.152 225.416 173.632 225.688L179.64 229.165C180.12 229.437 180.056 229.934 179.512 230.254L173.552 233.698C172.992 234.019 172.159 234.051 171.678 233.778Z" fill="#2E2D3D"/>
<path d="M180.953 239.141L174.946 235.665C174.465 235.392 174.529 234.896 175.074 234.575L181.033 231.131C181.594 230.811 182.427 230.779 182.908 231.051L188.915 234.527C189.396 234.8 189.332 235.296 188.787 235.617L182.828 239.061C182.267 239.381 181.434 239.413 180.953 239.141Z" fill="#2E2D3D"/>
<path d="M190.229 244.494L184.221 241.017C183.741 240.745 183.805 240.248 184.349 239.928L190.309 236.484C190.869 236.163 191.703 236.131 192.183 236.404L198.191 239.88C198.671 240.152 198.607 240.649 198.062 240.969L192.103 244.414C191.542 244.734 190.709 244.766 190.229 244.494Z" fill="#2E2D3D"/>
<path d="M199.521 249.84L193.513 246.363C193.033 246.091 193.097 245.594 193.641 245.274L199.601 241.83C200.162 241.509 200.995 241.477 201.475 241.75L207.483 245.226C207.963 245.498 207.899 245.995 207.354 246.315L201.395 249.76C200.834 250.08 200.001 250.112 199.521 249.84Z" fill="#2E2D3D"/>
<path d="M208.795 255.212L202.788 251.735C202.307 251.463 202.371 250.966 202.916 250.646L208.875 247.202C209.436 246.881 210.269 246.849 210.75 247.121L216.757 250.598C217.238 250.87 217.174 251.367 216.629 251.687L210.669 255.131C210.109 255.452 209.276 255.484 208.795 255.212Z" fill="#2E2D3D"/>
<path d="M218.071 260.562L212.064 257.086C211.583 256.813 211.647 256.317 212.192 255.996L218.152 252.552C218.712 252.232 219.545 252.2 220.026 252.472L226.033 255.948C226.514 256.221 226.45 256.717 225.905 257.038L219.946 260.482C219.385 260.802 218.552 260.834 218.071 260.562Z" fill="#2E2D3D"/>
<path d="M234.572 270.094L221.467 262.533C220.987 262.261 221.051 261.764 221.595 261.444L227.555 257.999C228.116 257.679 228.949 257.647 229.429 257.919L242.534 265.481C243.014 265.753 242.95 266.25 242.405 266.57L236.446 270.014C235.885 270.335 235.052 270.367 234.572 270.094Z" fill="#2E2D3D"/>
<path d="M252.626 259.666L241.556 253.274C241.076 253.002 241.14 252.505 241.684 252.185L247.644 248.74C248.204 248.42 249.037 248.388 249.518 248.66L260.588 255.052C261.068 255.325 261.004 255.821 260.46 256.142L254.5 259.586C253.94 259.906 253.107 259.938 252.626 259.666Z" fill="#2E2D3D"/>
<path d="M160.096 216.653L154.088 213.177C153.608 212.904 153.672 212.408 154.217 212.087L160.176 208.643C160.737 208.323 161.57 208.291 162.05 208.563L168.058 212.039C168.538 212.312 168.474 212.808 167.93 213.129L161.97 216.573C161.409 216.893 160.576 216.925 160.096 216.653Z" fill="#2E2D3D"/>
<path d="M150.579 211.173L144.572 207.696C144.091 207.424 144.155 206.927 144.7 206.607L150.659 203.163C151.22 202.842 152.053 202.81 152.534 203.083L158.541 206.559C159.022 206.831 158.958 207.328 158.413 207.648L152.454 211.093C151.893 211.413 151.06 211.445 150.579 211.173Z" fill="#2E2D3D"/>
<path d="M141.064 205.678L135.056 202.202C134.576 201.929 134.64 201.433 135.184 201.112L141.144 197.668C141.704 197.348 142.537 197.316 143.018 197.588L149.026 201.064C149.506 201.337 149.442 201.833 148.897 202.154L142.938 205.598C142.377 205.918 141.544 205.95 141.064 205.678Z" fill="#2E2D3D"/>
<path d="M131.565 200.181L125.557 196.705C125.077 196.433 125.141 195.936 125.685 195.616L131.645 192.171C132.205 191.851 133.038 191.819 133.519 192.091L139.527 195.568C140.007 195.84 139.943 196.336 139.398 196.657L133.439 200.101C132.878 200.422 132.045 200.454 131.565 200.181Z" fill="#2E2D3D"/>
<path d="M169.37 222.018L163.363 218.541C162.882 218.269 162.946 217.772 163.491 217.452L169.45 214.008C170.011 213.687 170.844 213.655 171.325 213.928L177.332 217.404C177.813 217.676 177.749 218.173 177.204 218.493L171.245 221.938C170.684 222.258 169.851 222.29 169.37 222.018Z" fill="#2E2D3D"/>
<path d="M178.647 227.368L172.639 223.892C172.159 223.62 172.223 223.123 172.767 222.803L178.727 219.358C179.287 219.038 180.12 219.006 180.601 219.278L186.609 222.755C187.089 223.027 187.025 223.523 186.48 223.844L180.521 227.288C179.96 227.609 179.127 227.641 178.647 227.368Z" fill="#2E2D3D"/>
<path d="M187.922 232.731L181.915 229.254C181.434 228.982 181.498 228.485 182.043 228.165L188.002 224.721C188.563 224.4 189.396 224.368 189.876 224.641L195.884 228.117C196.365 228.389 196.3 228.886 195.756 229.206L189.796 232.65C189.236 232.971 188.403 233.003 187.922 232.731Z" fill="#2E2D3D"/>
<path d="M197.197 238.086L191.19 234.609C190.709 234.337 190.773 233.841 191.318 233.52L197.278 230.076C197.838 229.755 198.671 229.723 199.152 229.996L205.159 233.472C205.64 233.744 205.576 234.241 205.031 234.561L199.072 238.006C198.511 238.326 197.678 238.358 197.197 238.086Z" fill="#2E2D3D"/>
<path d="M206.489 243.436L200.482 239.96C200.001 239.688 200.065 239.191 200.61 238.871L206.57 235.426C207.13 235.106 207.963 235.074 208.444 235.346L214.451 238.823C214.932 239.095 214.868 239.592 214.323 239.912L208.364 243.356C207.803 243.677 206.97 243.709 206.489 243.436Z" fill="#2E2D3D"/>
<path d="M215.765 248.804L209.757 245.327C209.277 245.055 209.341 244.558 209.886 244.238L215.845 240.794C216.406 240.473 217.239 240.441 217.719 240.714L223.727 244.19C224.207 244.462 224.143 244.959 223.599 245.279L217.639 248.723C217.078 249.044 216.245 249.076 215.765 248.804Z" fill="#2E2D3D"/>
<path d="M225.04 254.154L219.033 250.678C218.552 250.405 218.616 249.909 219.161 249.588L225.12 246.144C225.681 245.824 226.514 245.792 226.995 246.064L233.002 249.54C233.483 249.813 233.419 250.309 232.874 250.63L226.915 254.074C226.354 254.394 225.521 254.426 225.04 254.154Z" fill="#2E2D3D"/>
<path d="M234.316 259.524L228.308 256.047C227.828 255.775 227.892 255.278 228.436 254.958L234.396 251.514C234.956 251.193 235.789 251.161 236.27 251.433L242.277 254.91C242.758 255.182 242.694 255.679 242.149 255.999L236.19 259.443C235.629 259.764 234.796 259.796 234.316 259.524Z" fill="#2E2D3D"/>
<path d="M243.607 264.869L237.599 261.393C237.119 261.121 237.183 260.624 237.727 260.304L243.687 256.86C244.247 256.539 245.08 256.507 245.561 256.779L251.569 260.256C252.049 260.528 251.985 261.025 251.44 261.345L245.481 264.789C244.92 265.11 244.087 265.142 243.607 264.869Z" fill="#2E2D3D"/>
<path d="M155.209 203.403L149.202 199.927C148.721 199.654 148.785 199.158 149.33 198.837L155.289 195.393C155.85 195.073 156.683 195.041 157.164 195.313L163.171 198.789C163.652 199.062 163.588 199.558 163.043 199.879L157.084 203.323C156.523 203.643 155.69 203.675 155.209 203.403Z" fill="#2E2D3D"/>
<path d="M145.966 198.088L139.959 194.611C139.478 194.339 139.542 193.842 140.087 193.522L146.046 190.078C146.607 189.757 147.44 189.725 147.92 189.998L153.928 193.474C154.408 193.746 154.344 194.243 153.8 194.563L147.84 198.008C147.28 198.328 146.447 198.36 145.966 198.088Z" fill="#2E2D3D"/>
<path d="M136.737 192.749L130.73 189.273C130.249 189 130.314 188.504 130.858 188.183L136.818 184.739C137.378 184.419 138.211 184.386 138.692 184.659L144.699 188.135C145.18 188.407 145.116 188.904 144.571 189.225L138.612 192.669C138.051 192.989 137.218 193.021 136.737 192.749Z" fill="#2E2D3D"/>
<path d="M127.511 187.417L121.503 183.941C121.023 183.669 121.087 183.172 121.632 182.852L127.591 179.407C128.152 179.087 128.985 179.055 129.465 179.327L135.473 182.804C135.953 183.076 135.889 183.573 135.345 183.893L129.385 187.337C128.825 187.658 127.992 187.69 127.511 187.417Z" fill="#2E2D3D"/>
<path d="M136.994 181.936L130.987 178.46C130.506 178.187 130.57 177.691 131.115 177.37L133.085 176.233C133.646 175.912 134.479 175.88 134.96 176.153L140.967 179.629C141.448 179.901 141.384 180.398 140.839 180.718L138.869 181.856C138.308 182.176 137.475 182.208 136.994 181.936Z" fill="#2E2D3D"/>
<path d="M149.042 188.891L143.035 185.415C142.554 185.143 142.618 184.646 143.163 184.326L145.133 183.188C145.694 182.868 146.527 182.836 147.008 183.108L153.015 186.585C153.496 186.857 153.432 187.354 152.887 187.674L150.916 188.811C150.356 189.132 149.523 189.164 149.042 188.891Z" fill="#2E2D3D"/>
<path d="M158.237 194.195L152.229 190.718C151.748 190.446 151.813 189.949 152.357 189.629L154.328 188.492C154.888 188.171 155.721 188.139 156.202 188.412L162.209 191.888C162.69 192.16 162.626 192.657 162.081 192.977L160.111 194.115C159.55 194.435 158.717 194.467 158.237 194.195Z" fill="#2E2D3D"/>
<path d="M167.432 199.512L161.424 196.036C160.944 195.764 161.008 195.267 161.553 194.947L163.523 193.809C164.084 193.489 164.917 193.457 165.397 193.729L171.405 197.205C171.885 197.478 171.821 197.974 171.277 198.295L169.306 199.432C168.745 199.753 167.912 199.785 167.432 199.512Z" fill="#2E2D3D"/>
<path d="M176.628 204.811L170.621 201.335C170.14 201.062 170.204 200.566 170.749 200.245L172.719 199.108C173.28 198.787 174.113 198.755 174.594 199.028L180.601 202.504C181.082 202.776 181.018 203.273 180.473 203.593L178.502 204.731C177.942 205.051 177.109 205.083 176.628 204.811Z" fill="#2E2D3D"/>
<path d="M227.956 234.448L221.949 230.972C221.468 230.699 221.532 230.203 222.077 229.882L224.047 228.745C224.608 228.424 225.441 228.392 225.922 228.665L231.929 232.141C232.41 232.413 232.346 232.91 231.801 233.23L229.831 234.368C229.27 234.688 228.437 234.72 227.956 234.448Z" fill="#2E2D3D"/>
<path d="M237.152 239.751L231.144 236.275C230.663 236.002 230.728 235.506 231.272 235.185L233.243 234.048C233.803 233.728 234.636 233.696 235.117 233.968L241.124 237.444C241.605 237.717 241.541 238.213 240.996 238.534L239.026 239.671C238.465 239.991 237.632 240.023 237.152 239.751Z" fill="#2E2D3D"/>
<path d="M246.347 245.073L240.339 241.597C239.859 241.325 239.923 240.828 240.468 240.508L242.438 239.37C242.999 239.05 243.832 239.018 244.312 239.29L250.32 242.766C250.8 243.039 250.736 243.535 250.192 243.856L248.221 244.993C247.661 245.314 246.827 245.346 246.347 245.073Z" fill="#2E2D3D"/>
<path d="M255.542 250.37L249.535 246.893C249.054 246.621 249.118 246.124 249.663 245.804L251.633 244.667C252.194 244.346 253.027 244.314 253.508 244.587L259.515 248.063C259.996 248.335 259.932 248.832 259.387 249.152L257.417 250.29C256.856 250.61 256.023 250.642 255.542 250.37Z" fill="#2E2D3D"/>
<path d="M164.485 208.772L158.477 205.296C157.996 205.024 158.061 204.527 158.605 204.207L164.565 200.762C165.125 200.442 165.958 200.41 166.439 200.682L172.446 204.159C172.927 204.431 172.863 204.928 172.318 205.248L166.359 208.692C165.798 209.013 164.965 209.045 164.485 208.772Z" fill="#2E2D3D"/>
<path d="M173.761 214.12L167.753 210.644C167.273 210.372 167.337 209.875 167.882 209.555L173.841 206.111C174.402 205.79 175.235 205.758 175.715 206.03L181.723 209.507C182.203 209.779 182.139 210.276 181.595 210.596L175.635 214.04C175.075 214.361 174.242 214.393 173.761 214.12Z" fill="#2E2D3D"/>
<path d="M183.036 219.485L177.029 216.009C176.548 215.737 176.612 215.24 177.157 214.92L183.116 211.475C183.677 211.155 184.51 211.123 184.991 211.395L190.998 214.871C191.479 215.144 191.415 215.64 190.87 215.961L184.911 219.405C184.35 219.726 183.517 219.758 183.036 219.485Z" fill="#2E2D3D"/>
<path d="M192.312 224.838L186.304 221.362C185.824 221.09 185.888 220.593 186.432 220.273L192.392 216.828C192.953 216.508 193.786 216.476 194.266 216.748L200.274 220.224C200.754 220.497 200.69 220.993 200.145 221.314L194.186 224.758C193.625 225.079 192.792 225.111 192.312 224.838Z" fill="#2E2D3D"/>
<path d="M201.603 230.189L195.595 226.712C195.115 226.44 195.179 225.943 195.723 225.623L201.683 222.179C202.244 221.858 203.077 221.826 203.557 222.099L209.565 225.575C210.045 225.847 209.981 226.344 209.436 226.664L203.477 230.108C202.916 230.429 202.083 230.461 201.603 230.189Z" fill="#2E2D3D"/>
<path d="M210.878 235.553L204.871 232.077C204.39 231.805 204.454 231.308 204.999 230.988L210.958 227.543C211.519 227.223 212.352 227.191 212.833 227.463L218.84 230.94C219.321 231.212 219.257 231.709 218.712 232.029L212.752 235.473C212.192 235.794 211.359 235.826 210.878 235.553Z" fill="#2E2D3D"/>
<path d="M220.154 240.906L214.147 237.43C213.666 237.158 213.731 236.661 214.275 236.341L220.235 232.896C220.795 232.576 221.628 232.544 222.109 232.816L228.116 236.293C228.597 236.565 228.533 237.062 227.988 237.382L222.029 240.826C221.468 241.147 220.635 241.179 220.154 240.906Z" fill="#2E2D3D"/>
<path d="M229.431 246.271L223.423 242.795C222.943 242.522 223.007 242.026 223.552 241.705L229.511 238.261C230.072 237.941 230.905 237.909 231.385 238.181L237.393 241.657C237.873 241.93 237.809 242.426 237.265 242.747L231.305 246.191C230.744 246.511 229.911 246.543 229.431 246.271Z" fill="#2E2D3D"/>
<path d="M238.721 251.622L232.713 248.145C232.233 247.873 232.297 247.376 232.842 247.056L238.801 243.612C239.362 243.291 240.195 243.259 240.675 243.532L246.683 247.008C247.163 247.28 247.099 247.777 246.555 248.097L240.595 251.542C240.035 251.862 239.201 251.894 238.721 251.622Z" fill="#2E2D3D"/>
<path d="M111.427 209.427L93.7251 199.207C93.2446 198.934 93.3086 198.438 93.8533 198.117L99.8127 194.673C100.373 194.353 101.206 194.321 101.687 194.593L119.389 204.814C119.87 205.086 119.806 205.583 119.261 205.903L113.301 209.347C112.741 209.668 111.908 209.7 111.427 209.427Z" fill="#2E2D3D"/>
<path d="M225.425 275.234L207.723 265.014C207.243 264.741 207.307 264.245 207.851 263.924L213.811 260.48C214.371 260.159 215.204 260.127 215.685 260.4L233.387 270.62C233.868 270.893 233.804 271.389 233.259 271.71L227.299 275.154C226.739 275.475 225.906 275.507 225.425 275.234Z" fill="#2E2D3D"/>
<path d="M188.322 265.656L182.315 262.18C181.834 261.907 181.898 261.411 182.443 261.09L189.54 256.989C190.101 256.669 190.934 256.637 191.414 256.909L197.422 260.385C197.902 260.658 197.838 261.154 197.294 261.475L190.197 265.576C189.636 265.896 188.803 265.928 188.322 265.656Z" fill="#2E2D3D"/>
<path d="M120.928 226.747L111.316 221.204C110.835 220.932 110.899 220.435 111.444 220.115L118.541 216.014C119.102 215.693 119.935 215.661 120.415 215.934L130.027 221.477C130.508 221.749 130.444 222.246 129.899 222.566L122.802 226.667C122.242 226.987 121.408 227.019 120.928 226.747Z" fill="#2E2D3D"/>
<path d="M179.384 260.484L169.772 254.941C169.291 254.668 169.355 254.172 169.9 253.851L176.997 249.75C177.558 249.43 178.391 249.398 178.871 249.67L188.483 255.213C188.964 255.486 188.9 255.982 188.355 256.303L181.258 260.404C180.698 260.724 179.865 260.756 179.384 260.484Z" fill="#2E2D3D"/>
<path d="M134.32 234.484L124.708 228.941C124.227 228.669 124.291 228.172 124.836 227.852L131.933 223.751C132.493 223.43 133.326 223.398 133.807 223.671L143.419 229.213C143.899 229.486 143.835 229.982 143.291 230.303L136.194 234.404C135.633 234.724 134.8 234.756 134.32 234.484Z" fill="#2E2D3D"/>
<path d="M133.887 223.696L175.667 247.822C176.18 248.127 176.18 248.607 175.667 248.912L168.442 253.093C167.93 253.397 167.081 253.397 166.568 253.093L124.788 228.967L133.903 223.712L133.887 223.696Z" fill="#2E2D3D"/>
<path d="M214.259 275.365L220.956 279.225C221.356 279.45 221.308 279.85 220.843 280.122L217.944 281.805C217.495 282.061 216.79 282.093 216.406 281.869L209.71 278.008C209.309 277.784 209.357 277.383 209.822 277.111L212.721 275.429C213.17 275.172 213.875 275.14 214.259 275.365Z" fill="#2E2D3D"/>
<path d="M204.904 269.969L211.6 273.83C212.001 274.054 211.953 274.455 211.488 274.727L208.588 276.409C208.124 276.666 207.435 276.698 207.05 276.473L200.354 272.613C199.954 272.388 200.002 271.988 200.466 271.715L203.366 270.033C203.814 269.777 204.519 269.745 204.904 269.969Z" fill="#2E2D3D"/>
<path d="M195.611 264.595L202.307 268.456C202.708 268.68 202.66 269.081 202.195 269.353L199.295 271.035C198.847 271.291 198.142 271.323 197.758 271.099L191.061 267.238C190.661 267.014 190.709 266.614 191.173 266.341L194.073 264.659C194.537 264.403 195.226 264.371 195.611 264.595Z" fill="#2E2D3D"/>
<path d="M210.014 267L216.71 270.861C217.111 271.085 217.063 271.486 216.598 271.758L213.699 273.44C213.25 273.696 212.545 273.728 212.161 273.504L205.464 269.643C205.064 269.419 205.112 269.019 205.577 268.746L208.476 267.064C208.925 266.808 209.63 266.776 210.014 267Z" fill="#2E2D3D"/>
</g>
<path d="M304.69 122.628C304.242 122.628 303.745 122.5 303.296 122.228C301.871 121.41 301.006 119.552 301.342 118.094C301.502 117.389 301.919 116.861 302.512 116.605C303.168 116.316 303.985 116.412 304.738 116.845C306.164 117.662 307.045 119.52 306.693 120.978C306.533 121.683 306.116 122.212 305.523 122.468C305.267 122.58 304.995 122.628 304.69 122.628ZM303.329 117.069C303.12 117.069 302.928 117.101 302.752 117.181C302.351 117.357 302.063 117.726 301.951 118.239C301.678 119.44 302.415 120.994 303.601 121.683C304.178 122.019 304.786 122.083 305.251 121.891C305.651 121.715 305.94 121.346 306.052 120.834C306.324 119.632 305.587 118.078 304.402 117.389C304.033 117.181 303.665 117.069 303.329 117.069Z" fill="#E47AD5"/>
<path d="M312.332 127.048C311.867 127.048 311.387 126.92 310.938 126.648C309.513 125.831 308.631 123.973 308.984 122.515C309.144 121.81 309.561 121.281 310.153 121.025C310.81 120.737 311.627 120.833 312.38 121.265C313.822 122.098 314.687 123.909 314.335 125.398C314.174 126.103 313.758 126.632 313.165 126.888C312.909 127 312.636 127.048 312.332 127.048ZM310.97 121.49C310.762 121.49 310.57 121.522 310.394 121.602C309.993 121.778 309.705 122.146 309.593 122.659C309.32 123.86 310.057 125.414 311.243 126.103C311.819 126.44 312.412 126.504 312.893 126.312C313.293 126.135 313.582 125.767 313.694 125.254C313.966 124.053 313.229 122.499 312.028 121.81C311.659 121.602 311.291 121.49 310.954 121.49H310.97Z" fill="#E47AD5"/>
<path d="M321.672 129.727C321.367 131.057 320.054 131.538 318.74 130.785C317.426 130.032 316.625 128.334 316.93 127.004C317.234 125.674 318.548 125.194 319.861 125.947C321.175 126.7 321.976 128.398 321.672 129.727Z" fill="#E47AD5"/>
<path d="M174.978 45.3189L170.893 42.948L171.197 41.0576L175.298 43.4125L174.978 45.3189Z" fill="#E47AD5"/>
<path d="M180.92 48.7459L176.835 46.375L177.155 44.4846L181.24 46.8556L180.92 48.7459Z" fill="#E47AD5"/>
<path d="M169.081 41.908L160.11 36.7336L160.431 34.8433L169.402 40.0177L169.081 41.908Z" fill="#E47AD5"/>
<path d="M258.132 161.693C257.099 161.693 256.034 161.4 255.017 160.797L197.638 127.32C194.169 125.298 192.232 120.406 193.313 116.428C193.862 114.438 195.056 112.971 196.686 112.286C198.267 111.634 200.074 111.813 201.769 112.792L259.148 146.268C262.617 148.29 264.554 153.182 263.473 157.16C262.924 159.15 261.73 160.617 260.1 161.302C259.471 161.563 258.809 161.693 258.132 161.693ZM198.654 112.563C198.057 112.563 197.476 112.677 196.928 112.906C195.492 113.509 194.427 114.813 193.927 116.607C192.91 120.325 194.717 124.874 197.944 126.766L255.324 160.242C256.841 161.123 258.438 161.286 259.842 160.715C261.278 160.112 262.343 158.807 262.843 157.014C263.86 153.296 262.053 148.746 258.825 146.855L201.446 113.379C200.526 112.84 199.574 112.563 198.654 112.563Z" fill="#E47AD5"/>
<path d="M137.956 130.354V189.515C137.972 190.797 138.757 192.015 140.343 192.944L189.492 221.331C193.033 223.366 199.216 223.125 203.301 220.754C205.592 219.425 206.729 217.727 206.681 216.125V156.947L137.956 130.354Z" fill="url(#paint9_linear_559_12205)"/>
<path opacity="0.3" d="M193.177 222.495C196.477 222.991 200.402 222.399 203.301 220.732C205.592 219.403 206.73 217.705 206.682 216.103V156.925L193.433 151.799H193.193V222.479L193.177 222.495Z" fill="#2E2D3D"/>
<path d="M189.493 162.167L140.344 133.779C136.803 131.729 137.252 128.172 141.337 125.817C145.422 123.462 151.606 123.206 155.146 125.241L204.295 153.628C207.835 155.678 207.387 159.235 203.302 161.59C199.217 163.945 193.033 164.201 189.493 162.167Z" fill="url(#paint10_linear_559_12205)"/>
<path opacity="0.5" d="M189.493 244.625L140.344 216.237C136.803 214.187 137.252 210.63 141.337 208.275C145.422 205.92 151.606 205.664 155.146 207.699L204.295 236.086C207.835 238.136 207.387 241.693 203.302 244.048C199.217 246.403 193.033 246.659 189.493 244.625Z" fill="#2E2D3D"/>
<path d="M194.396 158.355C192.057 158.355 190.15 156.448 190.15 154.11V127.821C190.15 118.85 183.598 107.492 175.828 103.006L164.55 96.4859C161.571 94.7718 158.879 94.3393 157.165 95.3325C155.451 96.3257 154.474 98.8569 154.474 102.301V128.59C154.474 130.929 152.568 132.835 150.229 132.835C147.89 132.835 145.983 130.929 145.983 128.59V102.301C145.983 95.6529 148.45 90.5585 152.92 87.9793C157.39 85.4001 163.029 85.8006 168.796 89.1328L180.074 95.6529C190.487 101.66 198.641 115.79 198.641 127.821V154.11C198.641 156.448 196.734 158.355 194.396 158.355Z" fill="url(#paint11_linear_559_12205)"/>
<defs>
<linearGradient id="paint0_linear_559_12205" x1="36.9613" y1="126.302" x2="348.779" y2="157.234" gradientUnits="userSpaceOnUse">
<stop stop-color="#D77BE6"/>
<stop offset="0.346875" stop-color="#BE63E6"/>
<stop offset="1" stop-color="#6C38CC"/>
</linearGradient>
<linearGradient id="paint1_linear_559_12205" x1="342.402" y1="130.931" x2="121.503" y2="130.931" gradientUnits="userSpaceOnUse">
<stop stop-color="#C0BFF6"/>
<stop offset="0.29" stop-color="#C4C3F6"/>
<stop offset="0.64" stop-color="#D2D2F9"/>
<stop offset="1" stop-color="#E9E9FD"/>
</linearGradient>
<linearGradient id="paint2_linear_559_12205" x1="308.854" y1="66.8904" x2="347.107" y2="67.4589" gradientUnits="userSpaceOnUse">
<stop stop-color="#D77BE6"/>
<stop offset="0.346875" stop-color="#BE63E6"/>
<stop offset="1" stop-color="#6C38CC"/>
</linearGradient>
<linearGradient id="paint3_linear_559_12205" x1="37.0542" y1="109.546" x2="348.298" y2="142.382" gradientUnits="userSpaceOnUse">
<stop stop-color="#D77BE6"/>
<stop offset="0.346875" stop-color="#BE63E6"/>
<stop offset="1" stop-color="#6C38CC"/>
</linearGradient>
<linearGradient id="paint4_linear_559_12205" x1="157.014" y1="40.8722" x2="468.258" y2="73.7088" gradientUnits="userSpaceOnUse">
<stop stop-color="#D77BE6"/>
<stop offset="0.346875" stop-color="#BE63E6"/>
<stop offset="1" stop-color="#6C38CC"/>
</linearGradient>
<linearGradient id="paint5_linear_559_12205" x1="327.938" y1="172.185" x2="15.7906" y2="172.185" gradientUnits="userSpaceOnUse">
<stop stop-color="#C0BFF6"/>
<stop offset="0.29" stop-color="#C4C3F6"/>
<stop offset="0.64" stop-color="#D2D2F9"/>
<stop offset="1" stop-color="#E9E9FD"/>
</linearGradient>
<linearGradient id="paint6_linear_559_12205" x1="229.61" y1="56.505" x2="298.81" y2="59.5024" gradientUnits="userSpaceOnUse">
<stop stop-color="#D77BE6"/>
<stop offset="0.346875" stop-color="#BE63E6"/>
<stop offset="1" stop-color="#6C38CC"/>
</linearGradient>
<linearGradient id="paint7_linear_559_12205" x1="157.822" y1="98.7072" x2="327.409" y2="98.7072" gradientUnits="userSpaceOnUse">
<stop stop-color="#E9E9FD"/>
<stop offset="0.36" stop-color="#D2D2F9"/>
<stop offset="0.71" stop-color="#C4C3F6"/>
<stop offset="1" stop-color="#C0BFF6"/>
</linearGradient>
<linearGradient id="paint8_linear_559_12205" x1="204.681" y1="67.678" x2="327.489" y2="88.7602" gradientUnits="userSpaceOnUse">
<stop stop-color="#BCBEFF"/>
<stop offset="0.14" stop-color="#B3B6FB"/>
<stop offset="0.37" stop-color="#9DA2F3"/>
<stop offset="0.65" stop-color="#7981E4"/>
<stop offset="0.87" stop-color="#5761D7"/>
</linearGradient>
<linearGradient id="paint9_linear_559_12205" x1="145.937" y1="101.493" x2="215.137" y2="104.49" gradientUnits="userSpaceOnUse">
<stop stop-color="#D77BE6"/>
<stop offset="0.346875" stop-color="#BE63E6"/>
<stop offset="1" stop-color="#6C38CC"/>
</linearGradient>
<linearGradient id="paint10_linear_559_12205" x1="74.1333" y1="143.696" x2="243.72" y2="143.696" gradientUnits="userSpaceOnUse">
<stop stop-color="#E9E9FD"/>
<stop offset="0.36" stop-color="#D2D2F9"/>
<stop offset="0.71" stop-color="#C4C3F6"/>
<stop offset="1" stop-color="#C0BFF6"/>
</linearGradient>
<linearGradient id="paint11_linear_559_12205" x1="152.098" y1="63.7842" x2="205.122" y2="66.0397" gradientUnits="userSpaceOnUse">
<stop stop-color="#D77BE6"/>
<stop offset="0.346875" stop-color="#BE63E6"/>
<stop offset="1" stop-color="#6C38CC"/>
</linearGradient>
</defs>
</svg>
