<svg width="23" height="22" viewBox="0 0 23 22" fill="none" xmlns="http://www.w3.org/2000/svg">
<path fill-rule="evenodd" clip-rule="evenodd" d="M15.2659 4.34814C13.6371 4.34814 12.3115 5.66395 12.3115 7.29353C12.3115 8.92311 13.6371 10.2389 15.2659 10.2389C16.8946 10.2389 18.2203 8.92311 18.2203 7.29353C18.2203 5.66395 16.8946 4.34814 15.2659 4.34814ZM13.8115 7.29353C13.8115 6.49816 14.4597 5.84814 15.2659 5.84814C16.072 5.84814 16.7203 6.49816 16.7203 7.29353C16.7203 8.0889 16.072 8.73891 15.2659 8.73891C14.4597 8.73891 13.8115 8.0889 13.8115 7.29353Z" fill="#AFB2BF"/>
<path fill-rule="evenodd" clip-rule="evenodd" d="M9.11494 19.8783C9.44795 19.414 9.55513 18.9429 9.54718 18.5233C9.93935 18.6387 10.3274 18.6533 10.699 18.5828C11.4675 18.437 12.036 17.9512 12.3377 17.5507L12.343 17.5437L12.3481 17.5366C12.8732 16.8043 12.8722 16.0543 12.7436 15.5164C12.6806 15.2528 12.587 15.0361 12.5094 14.8846C12.4702 14.8081 12.434 14.746 12.4057 14.7005C12.3982 14.6885 12.3912 14.6775 12.3849 14.6677C12.2962 14.5021 12.196 14.3719 12.1119 14.2737L12.1209 14.2647L12.585 13.8024C12.9667 13.9849 13.3806 14.0999 13.7432 14.1749C14.3289 14.2962 14.902 14.3369 15.2657 14.3369C19.167 14.3369 22.3349 11.1863 22.3349 7.29344C22.3349 3.40056 19.167 0.25 15.2657 0.25C11.3643 0.25 8.19641 3.40056 8.19641 7.29344C8.19641 8.2105 8.40514 8.99588 8.61084 9.549C8.66321 9.68982 8.71577 9.81663 8.76531 9.92791L1.51007 17.1535C1.25365 17.4089 0.95285 17.853 0.861935 18.4092C0.763334 19.0124 0.925269 19.6829 1.51007 20.2654L2.39183 21.1435C2.40542 21.1571 2.41953 21.1701 2.43412 21.1825C2.68881 21.3999 3.1166 21.6513 3.63068 21.7273C4.18208 21.8088 4.82023 21.6818 5.36075 21.1435L5.92729 20.5793C6.4602 20.8849 7.02349 20.9545 7.54437 20.8548C8.21993 20.7254 8.78182 20.321 9.1046 19.8924L9.10986 19.8854L9.11494 19.8783ZM9.69641 7.29344C9.69641 4.23477 12.1869 1.75 15.2657 1.75C18.3444 1.75 20.8349 4.23477 20.8349 7.29344C20.8349 10.3521 18.3444 12.8369 15.2657 12.8369C14.9925 12.8369 14.5221 12.8044 14.0473 12.7061C13.5503 12.6032 13.1602 12.4504 12.9524 12.2779C12.6548 12.031 12.2182 12.0508 11.9442 12.3237L11.0624 13.2019C10.8607 13.4028 10.6667 13.6305 10.5644 13.8933C10.4348 14.2261 10.4761 14.5463 10.6244 14.8121C10.7123 14.9697 10.8538 15.1202 10.9128 15.183L10.9325 15.2042C11.0023 15.2811 11.0404 15.3314 11.0683 15.387L11.0948 15.4397L11.125 15.4817L11.1318 15.4924C11.1408 15.507 11.1562 15.533 11.1744 15.5685C11.2116 15.6412 11.2559 15.7445 11.2847 15.8652C11.3393 16.0937 11.3388 16.3656 11.1343 16.6551C10.9937 16.8384 10.7274 17.0506 10.4195 17.1091C10.1619 17.1579 9.74203 17.1261 9.18169 16.5681C8.88905 16.2766 8.41585 16.2766 8.12321 16.5681L7.82929 16.8608C7.55244 17.1365 7.53387 17.5782 7.7855 17.8761C7.78691 17.8778 7.79076 17.8826 7.79656 17.8903C7.8086 17.9062 7.82835 17.9336 7.85176 17.9704C7.8998 18.0461 7.95624 18.1508 7.99634 18.2706C8.0719 18.4963 8.08378 18.7374 7.90135 18.9966C7.78139 19.1519 7.53799 19.3287 7.26222 19.3815C7.02786 19.4264 6.7278 19.3931 6.38947 19.0562C6.09682 18.7647 5.62362 18.7647 5.33098 19.0562L4.30226 20.0807C4.13737 20.2449 3.99176 20.2643 3.85001 20.2434C3.68225 20.2186 3.51829 20.1293 3.42573 20.0562L2.56856 19.2025C2.33039 18.9653 2.32087 18.7821 2.34229 18.6511C2.37139 18.4731 2.48207 18.3025 2.56856 18.2163L10.2128 10.6033C10.4597 10.3575 10.5034 9.97351 10.3182 9.67844L10.3161 9.67481C10.3133 9.67026 10.3081 9.6615 10.3008 9.64869C10.2862 9.62306 10.2631 9.58139 10.2344 9.52511C10.1768 9.41229 10.0971 9.24227 10.0168 9.02615C9.85507 8.59135 9.69641 7.98632 9.69641 7.29344ZM7.7855 17.8761C7.78688 17.8777 7.78826 17.8793 7.78965 17.881L7.7885 17.8796L7.7855 17.8761Z" fill="#AFB2BF"/>
</svg>
